<?xml version="1.0" standalone="no"?><!DOCTYPE svg PUBLIC "-//W3C//DTD SVG 1.1//EN" "http://www.w3.org/Graphics/SVG/1.1/DTD/svg11.dtd"><svg width="100%" height="100%" viewBox="0 0 108 21" version="1.1" xmlns="http://www.w3.org/2000/svg" xmlns:xlink="http://www.w3.org/1999/xlink" xml:space="preserve" style="fill-rule:evenodd;clip-rule:evenodd;stroke-linejoin:round;stroke-miterlimit:1.41421;"><g id="Log"><path d="M8.18,3.898c0,0.122 -0.024,0.22 -0.073,0.294c-0.049,0.073 -0.11,0.128 -0.184,0.165c-0.073,0.037 -0.147,0.061 -0.22,0.073c-0.074,0.013 -0.135,0.019 -0.184,0.019c-0.196,0 -0.34,-0.101 -0.432,-0.303c-0.092,-0.202 -0.202,-0.423 -0.331,-0.662c-0.128,-0.239 -0.318,-0.459 -0.569,-0.661c-0.251,-0.202 -0.64,-0.303 -1.167,-0.303c-0.318,0 -0.6,0.067 -0.845,0.202c-0.245,0.135 -0.45,0.306 -0.615,0.514c-0.166,0.208 -0.288,0.438 -0.368,0.689c-0.079,0.251 -0.119,0.499 -0.119,0.744c0,0.392 0.07,0.75 0.211,1.075c0.141,0.325 0.34,0.631 0.597,0.919c0.258,0.287 0.564,0.569 0.919,0.845c0.355,0.275 0.741,0.566 1.157,0.872c0.355,0.257 0.701,0.521 1.038,0.79c0.337,0.27 0.637,0.557 0.9,0.864c0.264,0.306 0.475,0.633 0.634,0.983c0.16,0.349 0.239,0.725 0.239,1.129c0,0.454 -0.125,0.827 -0.376,1.121c-0.252,0.294 -0.567,0.53 -0.947,0.707c-0.379,0.178 -0.799,0.3 -1.258,0.368c-0.459,0.067 -0.903,0.101 -1.332,0.101c-0.429,0 -0.882,-0.037 -1.359,-0.11c-0.478,-0.074 -0.919,-0.199 -1.323,-0.377c-0.404,-0.178 -0.738,-0.404 -1.001,-0.68c-0.264,-0.275 -0.395,-0.615 -0.395,-1.019c0,-0.368 0.125,-0.656 0.376,-0.864c0.251,-0.208 0.616,-0.361 1.093,-0.459c-0.024,0.073 -0.076,0.199 -0.156,0.376c-0.079,0.178 -0.119,0.42 -0.119,0.726c0,0.343 0.11,0.619 0.33,0.827c0.221,0.208 0.484,0.367 0.79,0.478c0.307,0.11 0.622,0.18 0.946,0.211c0.325,0.03 0.591,0.046 0.8,0.046c0.134,0 0.321,-0.025 0.56,-0.074c0.239,-0.049 0.475,-0.122 0.707,-0.22c0.233,-0.098 0.432,-0.23 0.597,-0.395c0.166,-0.166 0.248,-0.365 0.248,-0.597c0,-0.184 -0.058,-0.377 -0.174,-0.579c-0.117,-0.202 -0.273,-0.41 -0.469,-0.625c-0.196,-0.214 -0.422,-0.431 -0.679,-0.652c-0.258,-0.22 -0.533,-0.441 -0.827,-0.661c-0.429,-0.331 -0.851,-0.668 -1.268,-1.011c-0.416,-0.343 -0.79,-0.698 -1.12,-1.065c-0.331,-0.368 -0.601,-0.75 -0.809,-1.148c-0.208,-0.398 -0.312,-0.818 -0.312,-1.259c0,-0.673 0.126,-1.246 0.377,-1.718c0.251,-0.471 0.575,-0.854 0.973,-1.148c0.398,-0.294 0.836,-0.508 1.314,-0.643c0.477,-0.134 0.943,-0.202 1.396,-0.202c0.343,0 0.701,0.028 1.075,0.083c0.373,0.055 0.716,0.135 1.029,0.239c0.312,0.104 0.569,0.239 0.771,0.404c0.202,0.165 0.303,0.358 0.303,0.579c0,0.171 -0.058,0.333 -0.174,0.486c-0.117,0.153 -0.175,0.322 -0.175,0.506l0,0Z" style="fill:#00477c;fill-rule:nonzero;"/><path d="M14.72,10.236c0,0.306 -0.055,0.649 -0.165,1.029c-0.11,0.379 -0.282,0.731 -0.514,1.056c-0.233,0.324 -0.53,0.597 -0.891,0.817c-0.362,0.221 -0.793,0.331 -1.295,0.331c-0.478,0 -0.882,-0.086 -1.213,-0.257c-0.331,-0.172 -0.603,-0.404 -0.818,-0.698c-0.214,-0.294 -0.367,-0.64 -0.459,-1.038c-0.092,-0.398 -0.138,-0.818 -0.138,-1.259c0,-0.428 0.049,-0.9 0.147,-1.414c0.098,-0.515 0.251,-0.995 0.46,-1.442c0.208,-0.447 0.471,-0.821 0.79,-1.121c0.318,-0.3 0.704,-0.45 1.157,-0.45c0.22,0 0.429,0.046 0.625,0.138c0.196,0.092 0.367,0.211 0.514,0.358c0.147,0.147 0.263,0.318 0.349,0.514c0.086,0.196 0.135,0.398 0.147,0.607l0.018,0.257c0,0.294 -0.049,0.615 -0.147,0.964c-0.097,0.349 -0.238,0.674 -0.422,0.974c-0.184,0.3 -0.41,0.551 -0.68,0.753c-0.269,0.202 -0.575,0.303 -0.918,0.303c-0.062,0 -0.138,-0.006 -0.23,-0.018c-0.092,-0.012 -0.181,-0.031 -0.266,-0.055l0,0.533c0,0.085 0.027,0.208 0.082,0.367c0.055,0.159 0.138,0.315 0.248,0.468c0.111,0.154 0.254,0.288 0.432,0.405c0.178,0.116 0.395,0.174 0.652,0.174c0.355,0 0.646,-0.07 0.873,-0.211c0.226,-0.141 0.413,-0.322 0.56,-0.542c0.147,-0.221 0.26,-0.469 0.34,-0.744c0.08,-0.276 0.144,-0.542 0.193,-0.799c0.037,-0.172 0.073,-0.288 0.11,-0.349c0.037,-0.062 0.098,-0.092 0.184,-0.092c0.184,0 0.275,0.104 0.275,0.312l0,0.129ZM12.553,7.388c0,-0.098 -0.028,-0.202 -0.083,-0.312c-0.055,-0.11 -0.156,-0.165 -0.303,-0.165c-0.221,0 -0.41,0.116 -0.57,0.349c-0.159,0.232 -0.291,0.499 -0.395,0.799c-0.104,0.3 -0.18,0.588 -0.229,0.863c-0.049,0.276 -0.074,0.456 -0.074,0.542l0,0.055c0,0.11 0.009,0.199 0.028,0.267c0.018,0.067 0.082,0.101 0.193,0.101l0.092,0c0.244,0 0.453,-0.092 0.624,-0.276c0.172,-0.184 0.309,-0.404 0.414,-0.661c0.104,-0.257 0.18,-0.521 0.229,-0.79c0.049,-0.27 0.074,-0.49 0.074,-0.662l0,-0.11l0,0Z" style="fill:#00477c;fill-rule:nonzero;"/><path d="M19.405,10.475c0,0.085 -0.027,0.29 -0.083,0.615c-0.055,0.325 -0.153,0.668 -0.293,1.029c-0.141,0.361 -0.331,0.683 -0.57,0.964c-0.239,0.282 -0.542,0.423 -0.909,0.423c-0.392,0 -0.705,-0.138 -0.937,-0.414c-0.233,-0.275 -0.411,-0.606 -0.533,-0.992c-0.123,-0.385 -0.202,-0.79 -0.239,-1.212c-0.037,-0.423 -0.055,-0.775 -0.055,-1.056c0,-0.319 0.018,-0.64 0.055,-0.965c0.037,-0.324 0.061,-0.646 0.074,-0.964c0,-0.098 -0.049,-0.16 -0.147,-0.184c-0.098,-0.025 -0.19,-0.037 -0.276,-0.037c-0.147,0 -0.239,0.018 -0.276,0.055c-0.036,0.037 -0.061,0.08 -0.073,0.129l-0.073,0.588c-0.049,0.392 -0.102,0.768 -0.157,1.13c-0.055,0.361 -0.116,0.679 -0.183,0.955c-0.068,0.275 -0.147,0.496 -0.239,0.661c-0.092,0.166 -0.199,0.248 -0.322,0.248l-0.018,0c-0.049,0 -0.095,-0.012 -0.138,-0.036c-0.043,-0.025 -0.064,-0.086 -0.064,-0.184c0,-0.049 0.012,-0.123 0.037,-0.221c0.098,-0.428 0.159,-0.784 0.183,-1.065c0.025,-0.282 0.043,-0.533 0.055,-0.753l0,-0.129c0,-0.061 0.003,-0.135 0.01,-0.22c0.006,-0.086 0.009,-0.19 0.009,-0.313l0,-0.477c0,-0.135 0,-0.276 0,-0.423c0,-0.147 -0.012,-0.306 -0.037,-0.478l-0.055,-1.084c0,-0.073 0.031,-0.14 0.092,-0.202c0.061,-0.061 0.141,-0.116 0.239,-0.165c0.098,-0.049 0.202,-0.086 0.312,-0.11c0.11,-0.025 0.208,-0.037 0.294,-0.037c0.208,0 0.312,0.135 0.312,0.404l0,0.092l-0.018,0.404l0,0.11c0,0.086 0.018,0.138 0.055,0.157c0.037,0.018 0.11,0.039 0.22,0.064l0.056,0c0.097,0.012 0.257,0.024 0.477,0.037c0.221,0.012 0.441,0.036 0.662,0.073c0.22,0.037 0.413,0.095 0.578,0.175c0.166,0.079 0.248,0.193 0.248,0.34c0,0.049 -0.012,0.119 -0.036,0.211c-0.025,0.092 -0.056,0.184 -0.092,0.275c-0.037,0.092 -0.068,0.175 -0.092,0.248c-0.025,0.074 -0.037,0.123 -0.037,0.147c-0.22,0.845 -0.331,1.727 -0.331,2.646c0,0.073 0.006,0.208 0.019,0.404c0.012,0.196 0.036,0.398 0.073,0.606c0.037,0.208 0.092,0.392 0.166,0.551c0.073,0.16 0.165,0.239 0.275,0.239c0.184,0 0.349,-0.113 0.496,-0.34c0.147,-0.226 0.276,-0.49 0.386,-0.79c0.11,-0.3 0.199,-0.603 0.266,-0.909c0.068,-0.306 0.114,-0.533 0.138,-0.68c0.025,-0.134 0.064,-0.217 0.12,-0.248c0.055,-0.03 0.107,-0.046 0.156,-0.046c0.171,0 0.257,0.111 0.257,0.331c0,0.025 -0.003,0.089 -0.009,0.193c-0.006,0.104 -0.016,0.181 -0.028,0.23l0,0Z" style="fill:#00477c;fill-rule:nonzero;"/><path d="M24.678,9.078c0,0.184 -0.034,0.325 -0.101,0.423c-0.068,0.098 -0.156,0.171 -0.267,0.22c-0.11,0.049 -0.235,0.083 -0.376,0.101c-0.141,0.019 -0.279,0.034 -0.414,0.046l0,0.092c0,0.257 -0.036,0.582 -0.11,0.974c-0.073,0.392 -0.181,0.771 -0.321,1.139c-0.141,0.367 -0.319,0.686 -0.533,0.955c-0.214,0.27 -0.469,0.417 -0.763,0.441c-0.061,0.012 -0.122,0.018 -0.183,0.018c-0.062,0 -0.123,0 -0.184,0c-0.588,0 -1.047,-0.137 -1.378,-0.413c-0.331,-0.275 -0.575,-0.625 -0.735,-1.047c-0.159,-0.423 -0.257,-0.885 -0.294,-1.387c-0.036,-0.502 -0.055,-0.98 -0.055,-1.433c0,-1.041 0.104,-2.101 0.313,-3.178c0.134,-0.013 0.257,-0.034 0.367,-0.065c0.11,-0.03 0.233,-0.046 0.367,-0.046c0.025,0 0.08,0 0.166,0c0.085,0 0.174,0.007 0.266,0.019c0.092,0.012 0.175,0.03 0.248,0.055c0.074,0.024 0.11,0.055 0.11,0.092c0,0.061 -0.006,0.144 -0.018,0.248c-0.012,0.104 -0.028,0.214 -0.046,0.331c-0.018,0.116 -0.037,0.229 -0.055,0.339c-0.018,0.111 -0.034,0.202 -0.046,0.276c-0.061,0.429 -0.11,0.863 -0.147,1.304c-0.037,0.441 -0.055,0.882 -0.055,1.323c0,0.172 0.012,0.407 0.037,0.707c0.024,0.3 0.073,0.597 0.147,0.891c0.073,0.294 0.18,0.548 0.321,0.763c0.141,0.214 0.328,0.321 0.561,0.321c0.22,0 0.398,-0.113 0.532,-0.34c0.135,-0.226 0.239,-0.489 0.313,-0.79c0.073,-0.3 0.122,-0.6 0.147,-0.9c0.024,-0.3 0.036,-0.529 0.036,-0.689c0,-0.061 -0.04,-0.128 -0.119,-0.202c-0.08,-0.073 -0.172,-0.171 -0.276,-0.294c-0.104,-0.122 -0.202,-0.269 -0.294,-0.441c-0.091,-0.171 -0.15,-0.379 -0.174,-0.624l0,-0.386c0,-0.098 0.003,-0.214 0.009,-0.349c0.006,-0.135 0.018,-0.273 0.037,-0.413c0.018,-0.141 0.043,-0.276 0.073,-0.405c0.031,-0.128 0.071,-0.229 0.12,-0.303c0,-0.012 0.021,-0.03 0.064,-0.055c0.043,-0.024 0.089,-0.049 0.138,-0.073c0.049,-0.025 0.098,-0.046 0.147,-0.065c0.049,-0.018 0.079,-0.027 0.092,-0.027c0.036,0 0.088,0.006 0.156,0.018c0.067,0.012 0.141,0.025 0.22,0.037c0.08,0.012 0.153,0.027 0.221,0.046c0.067,0.018 0.113,0.034 0.137,0.046c0.062,0.036 0.098,0.095 0.111,0.174c0.012,0.08 0.03,0.144 0.055,0.193c0.061,0.196 0.107,0.377 0.138,0.542c0.03,0.165 0.049,0.331 0.055,0.496c0.006,0.166 0.012,0.337 0.018,0.515c0.006,0.177 0.015,0.376 0.028,0.597c0,0.036 0.058,0.076 0.174,0.119c0.116,0.043 0.193,0.064 0.23,0.064c0.171,0 0.312,-0.049 0.422,-0.147c0.111,-0.098 0.184,-0.147 0.221,-0.147c0.061,0 0.101,0.04 0.119,0.12c0.019,0.079 0.028,0.138 0.028,0.174l0,0Z" style="fill:#00477c;fill-rule:nonzero;"/><path d="M30.134,10.236c0,0.306 -0.055,0.649 -0.165,1.029c-0.111,0.379 -0.282,0.731 -0.515,1.056c-0.232,0.324 -0.529,0.597 -0.891,0.817c-0.361,0.221 -0.793,0.331 -1.295,0.331c-0.478,0 -0.882,-0.086 -1.212,-0.257c-0.331,-0.172 -0.604,-0.404 -0.818,-0.698c-0.214,-0.294 -0.367,-0.64 -0.459,-1.038c-0.092,-0.398 -0.138,-0.818 -0.138,-1.259c0,-0.428 0.049,-0.9 0.147,-1.414c0.098,-0.515 0.251,-0.995 0.459,-1.442c0.208,-0.447 0.472,-0.821 0.79,-1.121c0.319,-0.3 0.704,-0.45 1.158,-0.45c0.22,0 0.428,0.046 0.624,0.138c0.196,0.092 0.368,0.211 0.515,0.358c0.147,0.147 0.263,0.318 0.349,0.514c0.085,0.196 0.134,0.398 0.147,0.607l0.018,0.257c0,0.294 -0.049,0.615 -0.147,0.964c-0.098,0.349 -0.239,0.674 -0.422,0.974c-0.184,0.3 -0.411,0.551 -0.68,0.753c-0.27,0.202 -0.576,0.303 -0.919,0.303c-0.061,0 -0.138,-0.006 -0.229,-0.018c-0.092,-0.012 -0.181,-0.031 -0.267,-0.055l0,0.533c0,0.085 0.028,0.208 0.083,0.367c0.055,0.159 0.138,0.315 0.248,0.468c0.11,0.154 0.254,0.288 0.432,0.405c0.177,0.116 0.395,0.174 0.652,0.174c0.355,0 0.646,-0.07 0.872,-0.211c0.227,-0.141 0.414,-0.322 0.561,-0.542c0.147,-0.221 0.26,-0.469 0.34,-0.744c0.079,-0.276 0.144,-0.542 0.193,-0.799c0.036,-0.172 0.073,-0.288 0.11,-0.349c0.037,-0.062 0.098,-0.092 0.183,-0.092c0.184,0 0.276,0.104 0.276,0.312l0,0.129ZM27.966,7.388c0,-0.098 -0.027,-0.202 -0.082,-0.312c-0.056,-0.11 -0.157,-0.165 -0.304,-0.165c-0.22,0 -0.41,0.116 -0.569,0.349c-0.159,0.232 -0.291,0.499 -0.395,0.799c-0.104,0.3 -0.181,0.588 -0.23,0.863c-0.049,0.276 -0.073,0.456 -0.073,0.542l0,0.055c0,0.11 0.009,0.199 0.027,0.267c0.019,0.067 0.083,0.101 0.193,0.101l0.092,0c0.245,0 0.453,-0.092 0.625,-0.276c0.171,-0.184 0.309,-0.404 0.413,-0.661c0.104,-0.257 0.181,-0.521 0.23,-0.79c0.049,-0.27 0.073,-0.49 0.073,-0.662l0,-0.11l0,0Z" style="fill:#00477c;fill-rule:nonzero;"/><path d="M34.819,10.475c0,0.085 -0.028,0.29 -0.083,0.615c-0.055,0.325 -0.153,0.668 -0.294,1.029c-0.141,0.361 -0.331,0.683 -0.569,0.964c-0.239,0.282 -0.542,0.423 -0.91,0.423c-0.392,0 -0.704,-0.138 -0.937,-0.414c-0.232,-0.275 -0.41,-0.606 -0.532,-0.992c-0.123,-0.385 -0.203,-0.79 -0.239,-1.212c-0.037,-0.423 -0.055,-0.775 -0.055,-1.056c0,-0.319 0.018,-0.64 0.055,-0.965c0.036,-0.324 0.061,-0.646 0.073,-0.964c0,-0.098 -0.049,-0.16 -0.147,-0.184c-0.098,-0.025 -0.19,-0.037 -0.275,-0.037c-0.147,0 -0.239,0.018 -0.276,0.055c-0.037,0.037 -0.061,0.08 -0.073,0.129l-0.074,0.588c-0.049,0.392 -0.101,0.768 -0.156,1.13c-0.055,0.361 -0.116,0.679 -0.184,0.955c-0.067,0.275 -0.147,0.496 -0.239,0.661c-0.091,0.166 -0.199,0.248 -0.321,0.248l-0.018,0c-0.049,0 -0.095,-0.012 -0.138,-0.036c-0.043,-0.025 -0.065,-0.086 -0.065,-0.184c0,-0.049 0.013,-0.123 0.037,-0.221c0.098,-0.428 0.159,-0.784 0.184,-1.065c0.024,-0.282 0.043,-0.533 0.055,-0.753l0,-0.129c0,-0.061 0.003,-0.135 0.009,-0.22c0.006,-0.086 0.009,-0.19 0.009,-0.313l0,-0.477c0,-0.135 0,-0.276 0,-0.423c0,-0.147 -0.012,-0.306 -0.036,-0.478l-0.055,-1.084c0,-0.073 0.03,-0.14 0.091,-0.202c0.062,-0.061 0.141,-0.116 0.239,-0.165c0.098,-0.049 0.202,-0.086 0.313,-0.11c0.11,-0.025 0.208,-0.037 0.293,-0.037c0.209,0 0.313,0.135 0.313,0.404l0,0.092l-0.019,0.404l0,0.11c0,0.086 0.019,0.138 0.056,0.157c0.036,0.018 0.11,0.039 0.22,0.064l0.055,0c0.098,0.012 0.257,0.024 0.478,0.037c0.22,0.012 0.441,0.036 0.661,0.073c0.221,0.037 0.413,0.095 0.579,0.175c0.165,0.079 0.248,0.193 0.248,0.34c0,0.049 -0.012,0.119 -0.037,0.211c-0.024,0.092 -0.055,0.184 -0.092,0.275c-0.036,0.092 -0.067,0.175 -0.092,0.248c-0.024,0.074 -0.036,0.123 -0.036,0.147c-0.221,0.845 -0.331,1.727 -0.331,2.646c0,0.073 0.006,0.208 0.018,0.404c0.013,0.196 0.037,0.398 0.074,0.606c0.037,0.208 0.092,0.392 0.165,0.551c0.074,0.16 0.166,0.239 0.276,0.239c0.183,0 0.349,-0.113 0.496,-0.34c0.147,-0.226 0.275,-0.49 0.386,-0.79c0.11,-0.3 0.199,-0.603 0.266,-0.909c0.067,-0.306 0.113,-0.533 0.138,-0.68c0.024,-0.134 0.064,-0.217 0.119,-0.248c0.055,-0.03 0.107,-0.046 0.156,-0.046c0.172,0 0.258,0.111 0.258,0.331c0,0.025 -0.004,0.089 -0.01,0.193c-0.006,0.104 -0.015,0.181 -0.027,0.23l0,0Z" style="fill:#00477c;fill-rule:nonzero;"/><path d="M38.713,11.926c0,0.294 -0.097,0.52 -0.293,0.68c-0.196,0.159 -0.42,0.275 -0.671,0.349c-0.251,0.073 -0.502,0.119 -0.753,0.137c-0.251,0.019 -0.432,0.028 -0.542,0.028c-0.172,0 -0.383,-0.018 -0.634,-0.055c-0.251,-0.037 -0.496,-0.095 -0.735,-0.175c-0.239,-0.079 -0.441,-0.192 -0.606,-0.339c-0.165,-0.147 -0.248,-0.331 -0.248,-0.552c0,-0.134 0.052,-0.229 0.156,-0.284c0.104,-0.055 0.205,-0.083 0.303,-0.083c0.135,0 0.267,0.049 0.395,0.147c0.129,0.098 0.263,0.202 0.404,0.312c0.141,0.11 0.297,0.215 0.469,0.313c0.171,0.098 0.367,0.147 0.588,0.147c0.098,0 0.229,-0.034 0.395,-0.102c0.165,-0.067 0.248,-0.186 0.248,-0.358c0,-0.171 -0.071,-0.337 -0.212,-0.496c-0.14,-0.159 -0.318,-0.324 -0.532,-0.496c-0.215,-0.171 -0.444,-0.349 -0.689,-0.533c-0.245,-0.183 -0.475,-0.382 -0.689,-0.597c-0.215,-0.214 -0.392,-0.45 -0.533,-0.707c-0.141,-0.257 -0.211,-0.539 -0.211,-0.845c0,-0.429 0.138,-0.79 0.413,-1.084c0.276,-0.294 0.6,-0.527 0.974,-0.698c0.373,-0.172 0.756,-0.294 1.148,-0.367c0.392,-0.074 0.698,-0.111 0.919,-0.111c0.208,0 0.416,0.043 0.624,0.129c0.208,0.086 0.312,0.251 0.312,0.496c0,0.073 -0.015,0.181 -0.045,0.321c-0.031,0.141 -0.08,0.279 -0.147,0.414c-0.068,0.135 -0.157,0.254 -0.267,0.358c-0.11,0.104 -0.251,0.156 -0.422,0.156c-0.049,0 -0.098,-0.021 -0.147,-0.064c-0.049,-0.043 -0.104,-0.092 -0.166,-0.147c-0.061,-0.055 -0.125,-0.104 -0.193,-0.147c-0.067,-0.043 -0.143,-0.064 -0.229,-0.064c-0.429,0 -0.729,0.125 -0.9,0.376c-0.172,0.251 -0.258,0.518 -0.258,0.799c0,0.245 0.144,0.503 0.432,0.772c0.288,0.269 0.606,0.539 0.955,0.808c0.35,0.27 0.668,0.536 0.956,0.8c0.288,0.263 0.431,0.517 0.431,0.762l0,0Z" style="fill:#00477c;fill-rule:nonzero;"/><path d="M41.708,4.559c0,0.086 -0.043,0.156 -0.129,0.211c-0.085,0.055 -0.18,0.095 -0.284,0.12c-0.104,0.024 -0.205,0.043 -0.303,0.055c-0.098,0.012 -0.16,0.018 -0.184,0.018c-0.257,0 -0.512,-0.073 -0.763,-0.22c-0.251,-0.147 -0.48,-0.38 -0.689,-0.698c-0.024,-0.037 -0.061,-0.086 -0.11,-0.147c-0.049,-0.062 -0.073,-0.104 -0.073,-0.129c0,-0.061 0.046,-0.116 0.138,-0.165c0.091,-0.049 0.196,-0.098 0.312,-0.147c0.116,-0.049 0.226,-0.086 0.331,-0.111c0.104,-0.024 0.174,-0.036 0.211,-0.036c0.245,0 0.487,0.061 0.726,0.183c0.238,0.123 0.431,0.35 0.578,0.68c0.025,0.037 0.071,0.101 0.138,0.193c0.067,0.092 0.101,0.156 0.101,0.193l0,0ZM43.582,10.126c-0.037,0.293 -0.104,0.6 -0.202,0.918c-0.098,0.319 -0.236,0.616 -0.414,0.891c-0.177,0.276 -0.401,0.502 -0.67,0.68c-0.27,0.177 -0.6,0.266 -0.992,0.266c-0.306,0 -0.619,-0.104 -0.937,-0.312c-0.319,-0.221 -0.536,-0.508 -0.652,-0.864c-0.117,-0.355 -0.175,-0.698 -0.175,-1.028c0,-0.098 0.006,-0.245 0.019,-0.441c0.012,-0.196 0.018,-0.435 0.018,-0.717l0,-2.021c0,-0.098 -0.003,-0.202 -0.009,-0.312c-0.006,-0.11 -0.022,-0.214 -0.046,-0.312c-0.012,-0.049 -0.034,-0.104 -0.064,-0.166c-0.031,-0.061 -0.046,-0.104 -0.046,-0.128c0,-0.049 0.03,-0.089 0.091,-0.12c0.062,-0.03 0.129,-0.052 0.203,-0.064c0.073,-0.012 0.143,-0.018 0.211,-0.018c0.067,0 0.101,0 0.101,0c0.037,0 0.122,0.003 0.257,0.009c0.135,0.006 0.276,0.027 0.423,0.064c0.147,0.037 0.278,0.095 0.395,0.175c0.116,0.079 0.174,0.193 0.174,0.34c0.012,0.036 -0.009,0.104 -0.064,0.202c-0.055,0.098 -0.107,0.269 -0.156,0.514c-0.013,0.098 -0.025,0.187 -0.037,0.267c-0.012,0.079 -0.025,0.168 -0.037,0.266c-0.012,0.098 -0.024,0.217 -0.037,0.358c-0.012,0.141 -0.024,0.322 -0.036,0.542l0,1.102c0,0.196 0.006,0.395 0.018,0.597c0.012,0.203 0.04,0.386 0.083,0.552c0.043,0.165 0.113,0.3 0.211,0.404c0.098,0.104 0.227,0.156 0.386,0.156c0.233,0 0.416,-0.067 0.551,-0.202c0.135,-0.135 0.239,-0.251 0.312,-0.349c0.135,-0.184 0.239,-0.414 0.313,-0.689c0.073,-0.276 0.14,-0.56 0.202,-0.854l0.036,-0.184c0.037,-0.184 0.147,-0.276 0.331,-0.276c0.184,0 0.276,0.129 0.276,0.386l0,0.092l-0.037,0.276l0,0Z" style="fill:#00477c;fill-rule:nonzero;"/><path d="M50.545,9.923c-0.025,0.27 -0.077,0.576 -0.156,0.919c-0.08,0.343 -0.196,0.667 -0.35,0.974c-0.153,0.306 -0.355,0.563 -0.606,0.771c-0.251,0.208 -0.554,0.313 -0.909,0.313c-0.527,0 -0.91,-0.123 -1.148,-0.368c-0.239,-0.245 -0.438,-0.624 -0.597,-1.139l-0.019,0.092c-0.049,0.196 -0.107,0.41 -0.174,0.643c-0.068,0.233 -0.16,0.444 -0.276,0.634c-0.116,0.19 -0.26,0.349 -0.432,0.477c-0.171,0.129 -0.392,0.193 -0.661,0.193c-0.184,0 -0.364,-0.033 -0.542,-0.101c-0.178,-0.067 -0.364,-0.15 -0.56,-0.248c-0.282,-0.147 -0.502,-0.343 -0.662,-0.588c-0.159,-0.245 -0.275,-0.496 -0.349,-0.753c-0.073,-0.257 -0.116,-0.505 -0.128,-0.744c-0.013,-0.239 -0.019,-0.425 -0.019,-0.56l0,-0.312c0,-0.074 0.019,-0.233 0.055,-0.478c0.037,-0.245 0.095,-0.53 0.175,-0.854c0.08,-0.325 0.178,-0.665 0.294,-1.02c0.116,-0.355 0.257,-0.68 0.422,-0.974c0.166,-0.294 0.356,-0.539 0.57,-0.735c0.214,-0.196 0.456,-0.294 0.726,-0.294c0.294,0 0.578,0.049 0.854,0.147c0.275,0.098 0.474,0.172 0.597,0.221c0.012,-0.221 0.021,-0.49 0.027,-0.808c0.007,-0.319 0.013,-0.634 0.019,-0.947c0.006,-0.312 0.009,-0.603 0.009,-0.872c0,-0.27 0,-0.472 0,-0.606c0,-0.319 -0.006,-0.591 -0.018,-0.818c-0.013,-0.227 -0.034,-0.419 -0.065,-0.579c-0.03,-0.159 -0.064,-0.287 -0.101,-0.385c-0.036,-0.098 -0.079,-0.184 -0.128,-0.258c0.208,-0.061 0.413,-0.104 0.615,-0.128c0.202,-0.025 0.389,-0.037 0.561,-0.037c0.281,0 0.499,0.021 0.652,0.064c0.153,0.043 0.229,0.15 0.229,0.322c0,0.073 -0.018,0.288 -0.055,0.643c-0.037,0.355 -0.073,0.817 -0.11,1.387c-0.037,0.569 -0.073,1.228 -0.11,1.975c-0.037,0.747 -0.055,1.543 -0.055,2.388l0,1.856c0,0.342 0.006,0.67 0.018,0.982c0.012,0.313 0.04,0.588 0.083,0.827c0.043,0.239 0.107,0.429 0.193,0.57c0.085,0.14 0.208,0.211 0.367,0.211c0.355,0 0.622,-0.205 0.799,-0.616c0.178,-0.41 0.322,-1.056 0.432,-1.938c0.012,-0.098 0.037,-0.183 0.073,-0.257c0.037,-0.073 0.117,-0.11 0.239,-0.11c0.11,0 0.181,0.07 0.211,0.211c0.031,0.141 0.04,0.279 0.028,0.413l-0.018,0.294l0,0ZM46.668,7.26c0,-0.037 -0.027,-0.08 -0.082,-0.129c-0.055,-0.049 -0.123,-0.098 -0.202,-0.147c-0.08,-0.049 -0.163,-0.092 -0.248,-0.129c-0.086,-0.036 -0.16,-0.055 -0.221,-0.055c-0.245,0 -0.462,0.15 -0.652,0.45c-0.19,0.3 -0.349,0.671 -0.478,1.112c-0.128,0.441 -0.223,0.912 -0.285,1.414c-0.061,0.503 -0.091,0.95 -0.091,1.342c0,0.147 0.006,0.318 0.018,0.514c0.012,0.196 0.043,0.38 0.092,0.551c0.049,0.172 0.116,0.319 0.202,0.441c0.086,0.123 0.202,0.184 0.349,0.184c0.159,0 0.306,-0.092 0.441,-0.276c0.135,-0.184 0.257,-0.422 0.367,-0.716c0.111,-0.294 0.212,-0.625 0.303,-0.992c0.092,-0.368 0.172,-0.732 0.239,-1.093c0.068,-0.362 0.12,-0.705 0.156,-1.029c0.037,-0.325 0.062,-0.585 0.074,-0.781l0.018,-0.661l0,0Z" style="fill:#00477c;fill-rule:nonzero;"/><path d="M55.34,10.236c0,0.306 -0.056,0.649 -0.166,1.029c-0.11,0.379 -0.281,0.731 -0.514,1.056c-0.233,0.324 -0.53,0.597 -0.891,0.817c-0.361,0.221 -0.793,0.331 -1.295,0.331c-0.478,0 -0.882,-0.086 -1.213,-0.257c-0.331,-0.172 -0.603,-0.404 -0.817,-0.698c-0.215,-0.294 -0.368,-0.64 -0.46,-1.038c-0.092,-0.398 -0.137,-0.818 -0.137,-1.259c0,-0.428 0.049,-0.9 0.147,-1.414c0.098,-0.515 0.251,-0.995 0.459,-1.442c0.208,-0.447 0.471,-0.821 0.79,-1.121c0.318,-0.3 0.704,-0.45 1.157,-0.45c0.221,0 0.429,0.046 0.625,0.138c0.196,0.092 0.367,0.211 0.514,0.358c0.147,0.147 0.264,0.318 0.349,0.514c0.086,0.196 0.135,0.398 0.147,0.607l0.019,0.257c0,0.294 -0.049,0.615 -0.147,0.964c-0.098,0.349 -0.239,0.674 -0.423,0.974c-0.184,0.3 -0.41,0.551 -0.68,0.753c-0.269,0.202 -0.575,0.303 -0.918,0.303c-0.061,0 -0.138,-0.006 -0.23,-0.018c-0.092,-0.012 -0.181,-0.031 -0.266,-0.055l0,0.533c0,0.085 0.027,0.208 0.082,0.367c0.056,0.159 0.138,0.315 0.248,0.468c0.111,0.154 0.255,0.288 0.432,0.405c0.178,0.116 0.395,0.174 0.652,0.174c0.356,0 0.646,-0.07 0.873,-0.211c0.227,-0.141 0.413,-0.322 0.56,-0.542c0.147,-0.221 0.261,-0.469 0.34,-0.744c0.08,-0.276 0.144,-0.542 0.193,-0.799c0.037,-0.172 0.074,-0.288 0.11,-0.349c0.037,-0.062 0.098,-0.092 0.184,-0.092c0.184,0 0.276,0.104 0.276,0.312l0,0.129ZM53.172,7.388c0,-0.098 -0.028,-0.202 -0.083,-0.312c-0.055,-0.11 -0.156,-0.165 -0.303,-0.165c-0.22,0 -0.41,0.116 -0.57,0.349c-0.159,0.232 -0.29,0.499 -0.395,0.799c-0.104,0.3 -0.18,0.588 -0.229,0.863c-0.049,0.276 -0.074,0.456 -0.074,0.542l0,0.055c0,0.11 0.01,0.199 0.028,0.267c0.018,0.067 0.083,0.101 0.193,0.101l0.092,0c0.245,0 0.453,-0.092 0.624,-0.276c0.172,-0.184 0.31,-0.404 0.414,-0.661c0.104,-0.257 0.18,-0.521 0.229,-0.79c0.049,-0.27 0.074,-0.49 0.074,-0.662l0,-0.11Z" style="fill:#00477c;fill-rule:nonzero;"/><path d="M66.583,3.898c0,0.122 -0.025,0.22 -0.074,0.294c-0.049,0.073 -0.11,0.128 -0.183,0.165c-0.074,0.037 -0.147,0.061 -0.221,0.073c-0.073,0.013 -0.134,0.019 -0.183,0.019c-0.196,0 -0.34,-0.101 -0.432,-0.303c-0.092,-0.202 -0.202,-0.423 -0.331,-0.662c-0.128,-0.239 -0.318,-0.459 -0.569,-0.661c-0.251,-0.202 -0.64,-0.303 -1.167,-0.303c-0.318,0 -0.6,0.067 -0.845,0.202c-0.245,0.135 -0.45,0.306 -0.616,0.514c-0.165,0.208 -0.287,0.438 -0.367,0.689c-0.08,0.251 -0.119,0.499 -0.119,0.744c0,0.392 0.07,0.75 0.211,1.075c0.141,0.325 0.34,0.631 0.597,0.919c0.257,0.287 0.563,0.569 0.919,0.845c0.355,0.275 0.741,0.566 1.157,0.872c0.355,0.257 0.701,0.521 1.038,0.79c0.337,0.27 0.637,0.557 0.9,0.864c0.263,0.306 0.475,0.633 0.634,0.983c0.159,0.349 0.239,0.725 0.239,1.129c0,0.454 -0.126,0.827 -0.377,1.121c-0.251,0.294 -0.566,0.53 -0.946,0.707c-0.38,0.178 -0.799,0.3 -1.258,0.368c-0.46,0.067 -0.904,0.101 -1.332,0.101c-0.429,0 -0.882,-0.037 -1.36,-0.11c-0.477,-0.074 -0.918,-0.199 -1.323,-0.377c-0.404,-0.178 -0.737,-0.404 -1.001,-0.68c-0.263,-0.275 -0.395,-0.615 -0.395,-1.019c0,-0.368 0.126,-0.656 0.377,-0.864c0.251,-0.208 0.615,-0.361 1.093,-0.459c-0.025,0.073 -0.077,0.199 -0.156,0.376c-0.08,0.178 -0.12,0.42 -0.12,0.726c0,0.343 0.111,0.619 0.331,0.827c0.221,0.208 0.484,0.367 0.79,0.478c0.306,0.11 0.622,0.18 0.946,0.211c0.325,0.03 0.591,0.046 0.799,0.046c0.135,0 0.322,-0.025 0.561,-0.074c0.238,-0.049 0.474,-0.122 0.707,-0.22c0.233,-0.098 0.432,-0.23 0.597,-0.395c0.165,-0.166 0.248,-0.365 0.248,-0.597c0,-0.184 -0.058,-0.377 -0.175,-0.579c-0.116,-0.202 -0.272,-0.41 -0.468,-0.625c-0.196,-0.214 -0.423,-0.431 -0.68,-0.652c-0.257,-0.22 -0.533,-0.441 -0.826,-0.661c-0.429,-0.331 -0.852,-0.668 -1.268,-1.011c-0.416,-0.343 -0.79,-0.698 -1.121,-1.065c-0.33,-0.368 -0.6,-0.75 -0.808,-1.148c-0.208,-0.398 -0.312,-0.818 -0.312,-1.259c0,-0.673 0.125,-1.246 0.376,-1.718c0.251,-0.471 0.576,-0.854 0.974,-1.148c0.398,-0.294 0.836,-0.508 1.313,-0.643c0.478,-0.134 0.944,-0.202 1.397,-0.202c0.343,0 0.701,0.028 1.074,0.083c0.374,0.055 0.717,0.135 1.029,0.239c0.313,0.104 0.57,0.239 0.772,0.404c0.202,0.165 0.303,0.358 0.303,0.579c0,0.171 -0.058,0.333 -0.175,0.486c-0.116,0.153 -0.174,0.322 -0.174,0.506l0,0Z" style="fill:#00477c;fill-rule:nonzero;"/><path d="M73.178,11.412c-0.294,0.698 -0.67,1.203 -1.13,1.515c-0.459,0.312 -1.001,0.469 -1.625,0.469c-0.062,0 -0.12,0 -0.175,0c-0.055,0 -0.113,-0.006 -0.175,-0.019c-0.306,-0.036 -0.6,-0.131 -0.881,-0.285c-0.282,-0.153 -0.527,-0.367 -0.735,-0.643c-0.208,-0.275 -0.374,-0.612 -0.496,-1.01c-0.123,-0.398 -0.184,-0.854 -0.184,-1.369c0,-0.489 0.064,-1.004 0.193,-1.543c0.129,-0.539 0.389,-1.029 0.781,-1.47c0.343,-0.391 0.744,-0.704 1.203,-0.936c0.459,-0.233 0.928,-0.35 1.405,-0.35c0.233,0 0.444,0.034 0.634,0.102c0.19,0.067 0.297,0.15 0.322,0.248c0.024,0.134 0.04,0.303 0.046,0.505c0.006,0.202 0.009,0.468 0.009,0.799c0,0.282 -0.022,0.49 -0.064,0.625c-0.043,0.134 -0.132,0.202 -0.267,0.202c-0.147,-0.013 -0.251,-0.089 -0.312,-0.23c-0.061,-0.141 -0.123,-0.294 -0.184,-0.459c-0.061,-0.166 -0.141,-0.319 -0.239,-0.46c-0.098,-0.14 -0.257,-0.217 -0.477,-0.229c-0.319,0 -0.582,0.122 -0.79,0.367c-0.208,0.245 -0.371,0.533 -0.487,0.864c-0.116,0.33 -0.196,0.661 -0.239,0.992c-0.043,0.33 -0.064,0.588 -0.064,0.771c0,0.711 0.107,1.32 0.321,1.828c0.215,0.509 0.597,0.787 1.148,0.836l0.203,0.019c0.379,0 0.685,-0.095 0.918,-0.285c0.233,-0.19 0.42,-0.398 0.56,-0.625c0.141,-0.226 0.252,-0.435 0.331,-0.624c0.08,-0.19 0.162,-0.285 0.248,-0.285l0.055,0c0.159,0.012 0.239,0.116 0.239,0.312c0,0.086 -0.031,0.208 -0.092,0.368l0,0Z" style="fill:#00477c;fill-rule:nonzero;"/><path d="M78.175,10.475c0,0.085 -0.027,0.29 -0.082,0.615c-0.056,0.325 -0.154,0.668 -0.294,1.029c-0.141,0.361 -0.331,0.683 -0.57,0.964c-0.239,0.282 -0.542,0.423 -0.909,0.423c-0.392,0 -0.705,-0.138 -0.937,-0.414c-0.233,-0.275 -0.411,-0.606 -0.533,-0.992c-0.122,-0.385 -0.202,-0.79 -0.239,-1.212c-0.037,-0.423 -0.055,-0.775 -0.055,-1.056c0,-0.319 0.018,-0.64 0.055,-0.965c0.037,-0.324 0.061,-0.646 0.074,-0.964c0,-0.098 -0.049,-0.16 -0.147,-0.184c-0.098,-0.025 -0.19,-0.037 -0.276,-0.037c-0.147,0 -0.239,0.018 -0.275,0.055c-0.037,0.037 -0.062,0.08 -0.074,0.129l-0.073,0.588c-0.049,0.392 -0.101,0.768 -0.157,1.13c-0.055,0.361 -0.116,0.679 -0.183,0.955c-0.068,0.275 -0.147,0.496 -0.239,0.661c-0.092,0.166 -0.199,0.248 -0.322,0.248l-0.018,0c-0.049,0 -0.095,-0.012 -0.138,-0.036c-0.043,-0.025 -0.064,-0.086 -0.064,-0.184c0,-0.049 0.012,-0.123 0.037,-0.221c0.098,-0.428 0.159,-0.784 0.183,-1.065c0.025,-0.282 0.043,-0.533 0.056,-0.753l0,-0.129c0,-0.061 0.003,-0.135 0.009,-0.22c0.006,-0.086 0.009,-0.19 0.009,-0.313l0,-0.477c0,-0.135 0,-0.276 0,-0.423c0,-0.147 -0.012,-0.306 -0.037,-0.478l-0.055,-1.084c0,-0.073 0.031,-0.14 0.092,-0.202c0.061,-0.061 0.141,-0.116 0.239,-0.165c0.098,-0.049 0.202,-0.086 0.312,-0.11c0.11,-0.025 0.208,-0.037 0.294,-0.037c0.208,0 0.312,0.135 0.312,0.404l0,0.092l-0.018,0.404l0,0.11c0,0.086 0.018,0.138 0.055,0.157c0.037,0.018 0.11,0.039 0.22,0.064l0.056,0c0.098,0.012 0.257,0.024 0.477,0.037c0.221,0.012 0.441,0.036 0.662,0.073c0.22,0.037 0.413,0.095 0.578,0.175c0.166,0.079 0.248,0.193 0.248,0.34c0,0.049 -0.012,0.119 -0.036,0.211c-0.025,0.092 -0.056,0.184 -0.092,0.275c-0.037,0.092 -0.068,0.175 -0.092,0.248c-0.025,0.074 -0.037,0.123 -0.037,0.147c-0.22,0.845 -0.331,1.727 -0.331,2.646c0,0.073 0.007,0.208 0.019,0.404c0.012,0.196 0.037,0.398 0.073,0.606c0.037,0.208 0.092,0.392 0.166,0.551c0.073,0.16 0.165,0.239 0.275,0.239c0.184,0 0.349,-0.113 0.496,-0.34c0.147,-0.226 0.276,-0.49 0.386,-0.79c0.11,-0.3 0.199,-0.603 0.266,-0.909c0.068,-0.306 0.114,-0.533 0.138,-0.68c0.025,-0.134 0.065,-0.217 0.12,-0.248c0.055,-0.03 0.107,-0.046 0.156,-0.046c0.171,0 0.257,0.111 0.257,0.331c0,0.025 -0.003,0.089 -0.009,0.193c-0.006,0.104 -0.016,0.181 -0.028,0.23l0,0Z" style="fill:#00477c;fill-rule:nonzero;"/><path d="M80.104,4.559c0,0.086 -0.043,0.156 -0.128,0.211c-0.086,0.055 -0.181,0.095 -0.285,0.12c-0.104,0.024 -0.205,0.043 -0.303,0.055c-0.098,0.012 -0.159,0.018 -0.184,0.018c-0.257,0 -0.511,-0.073 -0.762,-0.22c-0.251,-0.147 -0.481,-0.38 -0.689,-0.698c-0.025,-0.037 -0.062,-0.086 -0.111,-0.147c-0.049,-0.062 -0.073,-0.104 -0.073,-0.129c0,-0.061 0.046,-0.116 0.138,-0.165c0.092,-0.049 0.196,-0.098 0.312,-0.147c0.116,-0.049 0.227,-0.086 0.331,-0.111c0.104,-0.024 0.174,-0.036 0.211,-0.036c0.245,0 0.487,0.061 0.726,0.183c0.239,0.123 0.431,0.35 0.578,0.68c0.025,0.037 0.071,0.101 0.138,0.193c0.068,0.092 0.101,0.156 0.101,0.193l0,0ZM81.978,10.126c-0.037,0.293 -0.104,0.6 -0.202,0.918c-0.098,0.319 -0.236,0.616 -0.413,0.891c-0.178,0.276 -0.401,0.502 -0.671,0.68c-0.269,0.177 -0.6,0.266 -0.992,0.266c-0.306,0 -0.618,-0.104 -0.937,-0.312c-0.318,-0.221 -0.536,-0.508 -0.652,-0.864c-0.116,-0.355 -0.175,-0.698 -0.175,-1.028c0,-0.098 0.007,-0.245 0.019,-0.441c0.012,-0.196 0.018,-0.435 0.018,-0.717l0,-2.021c0,-0.098 -0.003,-0.202 -0.009,-0.312c-0.006,-0.11 -0.021,-0.214 -0.046,-0.312c-0.012,-0.049 -0.034,-0.104 -0.064,-0.166c-0.031,-0.061 -0.046,-0.104 -0.046,-0.128c0,-0.049 0.03,-0.089 0.092,-0.12c0.061,-0.03 0.128,-0.052 0.202,-0.064c0.073,-0.012 0.144,-0.018 0.211,-0.018c0.067,0 0.101,0 0.101,0c0.037,0 0.123,0.003 0.257,0.009c0.135,0.006 0.276,0.027 0.423,0.064c0.147,0.037 0.278,0.095 0.395,0.175c0.116,0.079 0.174,0.193 0.174,0.34c0.013,0.036 -0.009,0.104 -0.064,0.202c-0.055,0.098 -0.107,0.269 -0.156,0.514c-0.012,0.098 -0.025,0.187 -0.037,0.267c-0.012,0.079 -0.024,0.168 -0.037,0.266c-0.012,0.098 -0.024,0.217 -0.036,0.358c-0.013,0.141 -0.025,0.322 -0.037,0.542l0,1.102c0,0.196 0.006,0.395 0.018,0.597c0.013,0.203 0.04,0.386 0.083,0.552c0.043,0.165 0.113,0.3 0.211,0.404c0.098,0.104 0.227,0.156 0.386,0.156c0.233,0 0.416,-0.067 0.551,-0.202c0.135,-0.135 0.239,-0.251 0.312,-0.349c0.135,-0.184 0.239,-0.414 0.313,-0.689c0.073,-0.276 0.141,-0.56 0.202,-0.854l0.037,-0.184c0.036,-0.184 0.147,-0.276 0.33,-0.276c0.184,0 0.276,0.129 0.276,0.386l0,0.092l-0.037,0.276l0,0Z" style="fill:#00477c;fill-rule:nonzero;"/><path d="M86.644,9.538c0,0.514 -0.045,1.001 -0.137,1.46c-0.092,0.459 -0.23,0.857 -0.414,1.194c-0.183,0.337 -0.416,0.607 -0.698,0.809c-0.282,0.202 -0.606,0.303 -0.973,0.303c-0.331,0 -0.613,-0.065 -0.846,-0.193c-0.232,-0.129 -0.349,-0.352 -0.349,-0.671c0,-0.134 0.046,-0.239 0.138,-0.312c0.092,-0.073 0.175,-0.11 0.248,-0.11c0.098,0 0.169,0.027 0.211,0.082c0.043,0.056 0.086,0.117 0.129,0.184c0.043,0.068 0.092,0.129 0.147,0.184c0.055,0.055 0.144,0.083 0.266,0.083c0.209,0 0.371,-0.098 0.487,-0.294c0.117,-0.196 0.205,-0.441 0.267,-0.735c0.061,-0.294 0.101,-0.613 0.119,-0.956c0.018,-0.343 0.028,-0.661 0.028,-0.955l0,-0.845c0,-0.171 -0.007,-0.377 -0.019,-0.615c-0.012,-0.239 -0.043,-0.466 -0.092,-0.68c-0.049,-0.214 -0.125,-0.398 -0.229,-0.551c-0.104,-0.153 -0.242,-0.23 -0.414,-0.23c-0.257,0 -0.48,0.187 -0.67,0.56c-0.19,0.374 -0.346,0.845 -0.469,1.415c-0.122,0.57 -0.211,1.2 -0.266,1.892c-0.055,0.692 -0.083,1.357 -0.083,1.994l0,1.635c0.013,0.245 0.025,0.459 0.037,0.643c0.012,0.183 0.028,0.355 0.046,0.514c0.018,0.159 0.043,0.315 0.073,0.468c0.031,0.154 0.071,0.328 0.12,0.524c0.012,0.037 0.058,0.07 0.138,0.101c0.079,0.031 0.119,0.089 0.119,0.175c0,0.098 -0.034,0.174 -0.101,0.229c-0.067,0.055 -0.153,0.098 -0.257,0.129c-0.104,0.03 -0.218,0.049 -0.34,0.055c-0.123,0.006 -0.233,0.009 -0.331,0.009l-0.257,0c-0.147,0 -0.294,-0.021 -0.441,-0.064c-0.147,-0.043 -0.22,-0.156 -0.22,-0.34l0,-10.766c0,-0.245 -0.025,-0.441 -0.074,-0.588c-0.012,-0.049 -0.024,-0.094 -0.037,-0.137c-0.012,-0.043 -0.024,-0.083 -0.036,-0.12c0,-0.024 0.033,-0.055 0.101,-0.092c0.067,-0.036 0.144,-0.073 0.229,-0.11c0.086,-0.037 0.169,-0.067 0.248,-0.092c0.08,-0.024 0.126,-0.036 0.138,-0.036c0.208,0 0.371,0.067 0.487,0.202c0.116,0.134 0.175,0.398 0.175,0.79l0,2.553c0.073,-0.171 0.143,-0.398 0.211,-0.679c0.067,-0.282 0.165,-0.561 0.294,-0.836c0.128,-0.276 0.297,-0.515 0.505,-0.717c0.208,-0.202 0.478,-0.303 0.808,-0.303c0.392,0 0.714,0.132 0.965,0.395c0.251,0.263 0.453,0.582 0.606,0.955c0.153,0.374 0.26,0.772 0.322,1.194c0.061,0.423 0.091,0.8 0.091,1.13l0,0.166Z" style="fill:#00477c;fill-rule:nonzero;"/><path d="M87.949,9.74c0.012,-0.625 0.03,-1.262 0.055,-1.911c0.024,-0.649 0.049,-1.249 0.073,-1.8c0,-0.098 -0.098,-0.166 -0.294,-0.202c-0.195,-0.037 -0.416,-0.074 -0.661,-0.111c-0.245,-0.036 -0.465,-0.095 -0.661,-0.174c-0.196,-0.08 -0.294,-0.211 -0.294,-0.395c0,-0.159 0.159,-0.251 0.477,-0.276c0.319,-0.024 0.79,-0.036 1.415,-0.036c0.049,0 0.083,-0.074 0.101,-0.221c0.018,-0.147 0.031,-0.334 0.037,-0.56c0.006,-0.227 0.012,-0.469 0.018,-0.726c0.006,-0.257 0.016,-0.499 0.028,-0.726c0.012,-0.226 0.033,-0.413 0.064,-0.56c0.031,-0.147 0.07,-0.22 0.119,-0.22c0.062,0 0.172,0.012 0.331,0.036c0.159,0.025 0.325,0.059 0.496,0.101c0.172,0.043 0.322,0.095 0.45,0.157c0.129,0.061 0.193,0.128 0.193,0.202l-0.202,2.388c0,0.073 0.064,0.125 0.193,0.156c0.129,0.031 0.294,0.049 0.496,0.055c0.202,0.006 0.416,0.009 0.643,0.009c0.227,0 0.441,0.019 0.643,0.056c0.202,0.036 0.367,0.094 0.496,0.174c0.129,0.08 0.193,0.199 0.193,0.358c0,0.025 -0.012,0.065 -0.037,0.12c-0.024,0.055 -0.055,0.082 -0.092,0.082c-0.024,0 -0.058,-0.018 -0.101,-0.055c-0.043,-0.036 -0.156,-0.055 -0.34,-0.055c-0.049,0 -0.183,0.006 -0.404,0.019c-0.22,0.012 -0.453,0.03 -0.698,0.055c-0.245,0.024 -0.468,0.052 -0.67,0.082c-0.202,0.031 -0.316,0.071 -0.34,0.12c-0.013,0.024 -0.028,0.168 -0.046,0.431c-0.019,0.264 -0.037,0.61 -0.055,1.038c-0.019,0.429 -0.034,0.922 -0.046,1.479c-0.012,0.558 -0.019,1.142 -0.019,1.755c0,0.233 0.013,0.459 0.037,0.68c0.025,0.22 0.061,0.419 0.11,0.597c0.049,0.177 0.114,0.321 0.193,0.431c0.08,0.111 0.175,0.166 0.285,0.166c0.159,0 0.306,-0.068 0.441,-0.202c0.135,-0.135 0.257,-0.319 0.367,-0.552c0.111,-0.232 0.209,-0.496 0.294,-0.79c0.086,-0.293 0.16,-0.594 0.221,-0.9c0.036,-0.183 0.079,-0.315 0.128,-0.395c0.049,-0.079 0.123,-0.119 0.221,-0.119c0.086,0 0.162,0.027 0.229,0.083c0.068,0.055 0.101,0.18 0.101,0.376c0,0.123 -0.006,0.202 -0.018,0.239c-0.037,0.22 -0.107,0.524 -0.211,0.909c-0.104,0.386 -0.245,0.766 -0.423,1.139c-0.177,0.374 -0.395,0.702 -0.652,0.983c-0.257,0.282 -0.557,0.423 -0.9,0.423c-0.331,0 -0.619,-0.095 -0.864,-0.285c-0.244,-0.19 -0.45,-0.453 -0.615,-0.79c-0.165,-0.337 -0.291,-0.735 -0.377,-1.194c-0.085,-0.459 -0.128,-0.952 -0.128,-1.479l0,-0.165l0,0Z" style="fill:#00477c;fill-rule:nonzero;"/><path d="M94.03,4.559c0,0.086 -0.043,0.156 -0.129,0.211c-0.086,0.055 -0.181,0.095 -0.285,0.12c-0.104,0.024 -0.205,0.043 -0.303,0.055c-0.098,0.012 -0.159,0.018 -0.183,0.018c-0.258,0 -0.512,-0.073 -0.763,-0.22c-0.251,-0.147 -0.481,-0.38 -0.689,-0.698c-0.024,-0.037 -0.061,-0.086 -0.11,-0.147c-0.049,-0.062 -0.074,-0.104 -0.074,-0.129c0,-0.061 0.046,-0.116 0.138,-0.165c0.092,-0.049 0.196,-0.098 0.313,-0.147c0.116,-0.049 0.226,-0.086 0.33,-0.111c0.104,-0.024 0.175,-0.036 0.212,-0.036c0.244,0 0.486,0.061 0.725,0.183c0.239,0.123 0.432,0.35 0.579,0.68c0.024,0.037 0.07,0.101 0.138,0.193c0.067,0.092 0.101,0.156 0.101,0.193l0,0ZM95.904,10.126c-0.037,0.293 -0.104,0.6 -0.202,0.918c-0.098,0.319 -0.236,0.616 -0.414,0.891c-0.177,0.276 -0.401,0.502 -0.67,0.68c-0.27,0.177 -0.601,0.266 -0.992,0.266c-0.307,0 -0.619,-0.104 -0.937,-0.312c-0.319,-0.221 -0.536,-0.508 -0.653,-0.864c-0.116,-0.355 -0.174,-0.698 -0.174,-1.028c0,-0.098 0.006,-0.245 0.018,-0.441c0.013,-0.196 0.019,-0.435 0.019,-0.717l0,-2.021c0,-0.098 -0.003,-0.202 -0.01,-0.312c-0.006,-0.11 -0.021,-0.214 -0.045,-0.312c-0.013,-0.049 -0.034,-0.104 -0.065,-0.166c-0.03,-0.061 -0.046,-0.104 -0.046,-0.128c0,-0.049 0.031,-0.089 0.092,-0.12c0.061,-0.03 0.129,-0.052 0.202,-0.064c0.074,-0.012 0.144,-0.018 0.212,-0.018c0.067,0 0.101,0 0.101,0c0.036,0 0.122,0.003 0.257,0.009c0.134,0.006 0.275,0.027 0.422,0.064c0.147,0.037 0.279,0.095 0.395,0.175c0.117,0.079 0.175,0.193 0.175,0.34c0.012,0.036 -0.009,0.104 -0.064,0.202c-0.056,0.098 -0.108,0.269 -0.157,0.514c-0.012,0.098 -0.024,0.187 -0.036,0.267c-0.013,0.079 -0.025,0.168 -0.037,0.266c-0.012,0.098 -0.025,0.217 -0.037,0.358c-0.012,0.141 -0.024,0.322 -0.037,0.542l0,1.102c0,0.196 0.007,0.395 0.019,0.597c0.012,0.203 0.04,0.386 0.082,0.552c0.043,0.165 0.114,0.3 0.212,0.404c0.098,0.104 0.226,0.156 0.386,0.156c0.232,0 0.416,-0.067 0.551,-0.202c0.134,-0.135 0.238,-0.251 0.312,-0.349c0.135,-0.184 0.239,-0.414 0.312,-0.689c0.074,-0.276 0.141,-0.56 0.202,-0.854l0.037,-0.184c0.037,-0.184 0.147,-0.276 0.331,-0.276c0.184,0 0.275,0.129 0.275,0.386l0,0.092l-0.036,0.276l0,0Z" style="fill:#00477c;fill-rule:nonzero;"/><path d="M98.182,9.06c-0.184,0.257 -0.334,0.542 -0.45,0.854c-0.117,0.313 -0.218,0.637 -0.304,0.974c-0.085,0.337 -0.156,0.674 -0.211,1.01c-0.055,0.337 -0.113,0.659 -0.174,0.965c-0.025,0.073 -0.12,0.122 -0.285,0.147c-0.165,0.024 -0.285,0.037 -0.358,0.037c-0.221,0 -0.401,-0.013 -0.542,-0.037c-0.141,-0.025 -0.248,-0.083 -0.322,-0.175c-0.073,-0.092 -0.128,-0.232 -0.165,-0.422c-0.037,-0.19 -0.068,-0.444 -0.092,-0.763l0.239,-5.456c0,-0.159 0.086,-0.239 0.257,-0.239c0.061,0 0.147,0.009 0.257,0.028c0.11,0.018 0.227,0.046 0.349,0.082c0.123,0.037 0.227,0.083 0.313,0.138c0.085,0.055 0.128,0.12 0.128,0.193l0,3.73c0.012,-0.013 0.031,-0.062 0.055,-0.147c0.086,-0.221 0.19,-0.493 0.313,-0.818c0.122,-0.325 0.257,-0.634 0.404,-0.928c0.147,-0.294 0.303,-0.545 0.468,-0.753c0.166,-0.208 0.334,-0.312 0.505,-0.312c0.221,0 0.389,0.052 0.506,0.156c0.116,0.104 0.205,0.236 0.266,0.395c0.061,0.159 0.098,0.331 0.11,0.514c0.013,0.184 0.019,0.362 0.019,0.533c0,0.123 -0.013,0.325 -0.037,0.606c-0.025,0.282 -0.037,0.705 -0.037,1.268c0,0.318 0.031,0.606 0.092,0.863c0.061,0.258 0.184,0.386 0.367,0.386c0.135,0 0.258,-0.061 0.368,-0.184c0.11,-0.122 0.211,-0.275 0.303,-0.459c0.092,-0.184 0.168,-0.38 0.23,-0.588c0.061,-0.208 0.098,-0.404 0.11,-0.588c0.012,-0.232 0.104,-0.349 0.275,-0.349c0.111,0 0.184,0.037 0.221,0.111c0.037,0.073 0.055,0.159 0.055,0.257l0,0.037c-0.012,0.244 -0.058,0.52 -0.138,0.826c-0.079,0.306 -0.196,0.594 -0.349,0.864c-0.153,0.269 -0.352,0.496 -0.597,0.679c-0.245,0.184 -0.545,0.276 -0.9,0.276c-0.551,0 -0.903,-0.199 -1.056,-0.597c-0.154,-0.398 -0.23,-0.989 -0.23,-1.773l0.037,-1.341l0,0Z" style="fill:#00477c;fill-rule:nonzero;"/><path d="M107.073,13.543c0,0.122 -0.055,0.208 -0.165,0.257c-0.11,0.049 -0.214,0.073 -0.312,0.073l-0.368,-0.036c-0.061,0 -0.092,0.036 -0.092,0.11l-0.018,0.22c0.012,0.331 0.018,0.747 0.018,1.249c0,0.503 0,0.986 0,1.452c0,0.49 -0.015,0.97 -0.045,1.442c-0.031,0.472 -0.101,0.894 -0.212,1.268c-0.11,0.373 -0.266,0.673 -0.468,0.9c-0.202,0.226 -0.481,0.34 -0.836,0.34c-0.306,0 -0.628,-0.016 -0.965,-0.046c-0.336,-0.031 -0.643,-0.107 -0.918,-0.23c-0.276,-0.122 -0.502,-0.303 -0.68,-0.542c-0.177,-0.239 -0.266,-0.56 -0.266,-0.964c0,-0.405 0.046,-0.818 0.138,-1.24c0.091,-0.423 0.223,-0.833 0.394,-1.231c0.172,-0.398 0.377,-0.778 0.616,-1.139c0.239,-0.362 0.499,-0.683 0.781,-0.965c0.147,-0.147 0.309,-0.297 0.487,-0.45c0.177,-0.153 0.333,-0.279 0.468,-0.377l0,-0.018c0.025,-0.257 0.043,-0.514 0.055,-0.772c0.012,-0.257 0.019,-0.52 0.019,-0.789c-0.062,0.11 -0.135,0.26 -0.221,0.45c-0.086,0.189 -0.187,0.37 -0.303,0.542c-0.116,0.171 -0.248,0.321 -0.395,0.45c-0.147,0.128 -0.312,0.193 -0.496,0.193c-0.098,0 -0.184,-0.019 -0.257,-0.056c-0.074,-0.036 -0.178,-0.055 -0.313,-0.055c-0.343,-0.024 -0.627,-0.116 -0.854,-0.275c-0.226,-0.159 -0.404,-0.38 -0.533,-0.662c-0.128,-0.281 -0.217,-0.615 -0.266,-1.001c-0.049,-0.386 -0.073,-0.817 -0.073,-1.295c0,-0.576 0.033,-1.17 0.101,-1.782c0.067,-0.612 0.186,-1.173 0.358,-1.681c0.171,-0.508 0.401,-0.925 0.689,-1.249c0.288,-0.325 0.652,-0.487 1.093,-0.487c0.049,0 0.113,0.018 0.193,0.055c0.079,0.037 0.165,0.077 0.257,0.119c0.092,0.043 0.184,0.086 0.275,0.129c0.092,0.043 0.163,0.07 0.212,0.083c0.245,0.049 0.471,0.11 0.679,0.183c0.209,0.074 0.386,0.169 0.533,0.285c0.147,0.116 0.264,0.27 0.349,0.459c0.086,0.19 0.129,0.426 0.129,0.708c0,0.196 -0.015,0.373 -0.046,0.532c-0.031,0.16 -0.046,0.362 -0.046,0.607c0,0.098 0.037,0.165 0.11,0.202c0.074,0.037 0.156,0.067 0.248,0.092c0.092,0.024 0.175,0.052 0.248,0.082c0.074,0.031 0.111,0.095 0.111,0.193c0,0.025 -0.028,0.083 -0.083,0.175c-0.055,0.092 -0.089,0.15 -0.101,0.174c-0.037,0.098 -0.068,0.254 -0.092,0.469c-0.025,0.214 -0.043,0.447 -0.055,0.698c-0.012,0.251 -0.022,0.508 -0.028,0.772c-0.006,0.263 -0.009,0.499 -0.009,0.707c0,0.159 0,0.37 0,0.634c0,0.263 0.006,0.48 0.018,0.652l0.074,0c0.024,0 0.049,-0.003 0.073,-0.009c0.025,-0.007 0.043,-0.01 0.056,-0.01c0.11,0 0.26,0.034 0.45,0.101c0.19,0.068 0.284,0.169 0.284,0.304l0,0ZM104.722,7.866c0,-0.135 -0.012,-0.288 -0.037,-0.459c-0.024,-0.172 -0.067,-0.334 -0.128,-0.487c-0.062,-0.153 -0.15,-0.282 -0.267,-0.386c-0.116,-0.104 -0.26,-0.156 -0.432,-0.156c-0.232,0 -0.45,0.092 -0.652,0.275c-0.202,0.184 -0.379,0.444 -0.533,0.781c-0.153,0.337 -0.275,0.747 -0.367,1.231c-0.092,0.484 -0.138,1.032 -0.138,1.644c0,0.257 0.009,0.524 0.028,0.799c0.018,0.276 0.049,0.524 0.092,0.744c0.043,0.221 0.11,0.405 0.202,0.552c0.092,0.147 0.211,0.22 0.358,0.22c0.257,0 0.484,-0.11 0.68,-0.331c0.196,-0.22 0.358,-0.493 0.487,-0.817c0.128,-0.325 0.226,-0.662 0.294,-1.011c0.067,-0.349 0.107,-0.652 0.119,-0.909c0.012,-0.355 0.031,-0.597 0.055,-0.726c0.025,-0.128 0.049,-0.211 0.074,-0.248c0.073,-0.098 0.119,-0.214 0.137,-0.349c0.019,-0.134 0.028,-0.257 0.028,-0.367ZM104.648,14.259c-0.281,0.196 -0.548,0.472 -0.799,0.827c-0.251,0.355 -0.468,0.741 -0.652,1.157c-0.184,0.417 -0.328,0.839 -0.432,1.268c-0.104,0.428 -0.156,0.814 -0.156,1.157c0,0.123 0.012,0.257 0.037,0.404c0.024,0.147 0.064,0.285 0.119,0.414c0.055,0.128 0.135,0.236 0.239,0.321c0.104,0.086 0.23,0.129 0.377,0.129c0.257,0 0.468,-0.107 0.634,-0.322c0.165,-0.214 0.294,-0.468 0.385,-0.762c0.092,-0.294 0.153,-0.594 0.184,-0.9c0.031,-0.306 0.046,-0.551 0.046,-0.735c0,-0.037 0,-0.092 0,-0.165c0,-0.074 0.003,-0.215 0.009,-0.423c0.006,-0.208 0.009,-0.499 0.009,-0.873c0,-0.373 0,-0.872 0,-1.497l0,0Z" style="fill:#00477c;fill-rule:nonzero;"/></g></svg>